<!DOCTYPE svg PUBLIC "-//W3C//DTD SVG 1.1//EN" "http://www.w3.org/Graphics/SVG/1.1/DTD/svg11.dtd">
<!-- Uploaded to: SVG Repo, www.svgrepo.com, Transformed by: SVG Repo Mixer Tools -->
<svg version="1.1" id="Layer_1" xmlns="http://www.w3.org/2000/svg" xmlns:xlink="http://www.w3.org/1999/xlink" viewBox="0 0 512 512" xml:space="preserve" width="35px" height="35px" fill="#000000" transform="rotate(0)matrix(1, 0, 0, -1, 0, 0)">

<g id="SVGRepo_bgCarrier" stroke-width="0"/>

<g id="SVGRepo_tracerCarrier" stroke-linecap="round" stroke-linejoin="round"/>

<g id="SVGRepo_iconCarrier"> <rect x="191.225" y="255.028" transform="matrix(-0.7071 -0.7071 0.7071 -0.7071 139.3253 666.0267)" style="fill:#f2c6c7;" width="32.754" height="98.261"/> <g> <path style="fill:#fff4f4;" d="M362.953,178.108l18.13-12.571l15.486,8.181l54.062-7.06c13.409-1.86,25.546-7.898,35.119-17.471 c24.041-24.041,24.041-63.167,0-87.207c-6.277-6.277-13.703-11.001-21.702-14.027c-3.034-8.006-7.752-15.425-14.027-21.702 c-24.048-24.048-63.166-24.04-87.207,0c-9.573,9.573-15.618,21.717-17.479,35.111c-0.571,4.2-5.836,44.236-11.518,87.516 l-15.724,11.52l-17.888-7.131l-54.065,7.06c-13.394,1.86-25.546,7.898-35.12,17.471c-24.04,24.04-24.033,63.158,0.008,87.199 c6.284,6.284,13.695,11.009,21.702,14.043c3.026,7.997,7.751,15.41,14.035,21.694c24.04,24.04,63.158,24.048,87.199,0.008 c9.573-9.573,15.618-21.717,17.471-35.12C352.014,261.417,357.271,221.387,362.953,178.108z M377.784,65.865 c0.834-6.022,3.559-11.82,8.191-16.451c11.287-11.287,29.592-11.295,40.887,0c7.728,7.728,10.106,18.768,7.172,28.557 c9.774-2.949,20.829-0.557,28.557,7.172c11.287,11.287,11.287,29.6,0,40.887c-4.633,4.632-10.43,7.357-16.451,8.191l-45.148,5.892 l-17.266,10.835l-16.274-6.479C372.384,107.002,376.718,73.493,377.784,65.865z M269.918,277.582 c-7.735-7.735-10.114-18.774-7.172-28.557c-9.781,2.941-20.828,0.556-28.565-7.18c-11.287-11.287-11.287-29.599,0-40.885 c4.632-4.632,10.438-7.35,16.459-8.183l45.141-5.873l16.055-16.656l17.557,12.284c-4.925,37.474-9.342,70.964-10.399,78.599 c-0.841,6.014-3.559,11.82-8.191,16.451C299.516,288.87,281.205,288.869,269.918,277.582z"/> <path style="fill:#fff4f4;" d="M184.481,457.216c44.769-44.769,44.306-102.376,8.492-138.191s-93.423-36.276-138.191,8.492 C10.014,372.286-8.823,449.194,26.991,485.008c0.178,0.178,0.362,0.362,0.548,0.533C63.582,520.635,139.937,501.76,184.481,457.216 z"/> </g> <path style="fill:#e58b8e;" d="M169.813,342.185L38.818,473.66c0.055,0.069,0.123,0.123,0.186,0.186 c28.495,27.754,88.874,12.831,124.093-22.388C198.501,416.053,198.131,370.503,169.813,342.185z"/> <path style="fill:#f2c6c7;" d="M169.813,342.185c15.525,15.525,5.528,50.706-29.877,86.111 c-35.219,35.219-85.331,60.41-101.119,45.364c-0.085-0.07-0.17-0.154-0.247-0.231C10.253,445.111,25.145,384.3,60.542,348.903 C95.947,313.497,141.495,313.869,169.813,342.185z"/> <g> <circle style="fill:#e58b8e;" cx="66.676" cy="416.606" r="8.188"/> <circle style="fill:#e58b8e;" cx="74.395" cy="378.001" r="8.188"/> </g> <g> <polygon style="fill:#f2c6c7;" points="367.45,144.467 400.989,140.112 396.57,173.726 362.953,178.108 "/> <polygon style="fill:#f2c6c7;" points="333.817,148.88 300.205,153.269 295.782,186.904 329.394,182.531 "/> </g> <path d="M491.574,56.192c-6.173-6.173-13.297-11.046-21.215-14.52c-3.473-7.916-8.346-15.038-14.519-21.214 c-27.235-27.233-71.55-27.234-98.784,0.001c-10.844,10.845-17.687,24.599-19.791,39.777c-0.515,3.71-4.651,35.195-9.44,71.651 c-0.418,3.185-0.844,6.422-1.273,9.686l-81.503,10.644c-15.181,2.106-28.936,8.949-39.777,19.791 c-27.235,27.235-27.235,71.549,0,98.783c0.166,0.166,0.341,0.321,0.509,0.485l-26.681,26.682 c-14.559-8.581-31.058-13.175-48.164-13.175c-28.996,0-58.083,13.119-81.904,36.939C2.567,368.189-19.192,450.366,21.239,490.796 c13.849,13.849,33.693,21.17,57.385,21.17c38.104,0,81.944-19.22,111.686-48.963c39.116-39.116,47.453-90.699,23.65-130.425 l26.561-26.56c0.164,0.167,0.319,0.342,0.485,0.508c13.175,13.174,30.715,20.431,49.392,20.431c18.675,0,36.218-7.256,49.392-20.43 c10.843-10.844,17.687-24.598,19.792-39.779c0.514-3.704,4.638-35.096,9.412-71.443c0.428-3.254,0.861-6.558,1.3-9.895 l81.504-10.642c15.18-2.106,28.936-8.948,39.778-19.792C518.808,127.742,518.808,83.428,491.574,56.192z M178.729,451.423 c-26.83,26.83-66.123,44.166-100.107,44.166c-19.254,0-35.092-5.662-45.804-16.374c-33.26-33.26-12.371-105.747,27.793-145.911 c20.727-20.727,45.701-32.142,70.324-32.142c21.047,0,41.036,8.399,56.287,23.65C221.442,359.033,217.871,412.281,178.729,451.423z M204.257,319.12c-1.721-2.008-3.54-3.973-5.456-5.889c-1.986-1.986-4.053-3.856-6.169-5.648l26.218-26.219 c2.455,1.465,4.996,2.792,7.634,3.949c1.157,2.637,2.484,5.176,3.948,7.632L204.257,319.12z M479.993,143.397 c-8.3,8.301-18.828,13.538-30.381,15.142L372.5,168.608c5.998-45.646,12.163-92.485,13.429-101.621 c0.623-4.495,2.653-8.571,5.868-11.786c3.913-3.913,9.116-6.069,14.651-6.069s10.738,2.156,14.651,6.07 c5.343,5.343,7.306,13.162,5.124,20.405c-0.869,2.888-0.082,6.019,2.05,8.151c2.132,2.132,5.264,2.922,8.152,2.051 c7.24-2.184,15.063-0.218,20.407,5.125c3.913,3.913,6.069,9.116,6.069,14.651s-2.156,10.738-6.07,14.652 c-3.214,3.214-7.29,5.244-11.719,5.859l-45.149,5.894c-4.484,0.585-7.645,4.695-7.06,9.179c0.585,4.485,4.707,7.637,9.179,7.06 l45.213-5.902c8.059-1.117,15.359-4.753,21.115-10.509c7.007-7.007,10.867-16.322,10.867-26.231s-3.859-19.224-10.866-26.231 c-6.755-6.754-15.705-10.507-24.951-10.784c-0.275-9.244-4.029-18.195-10.783-24.949c-7.007-7.007-16.322-10.867-26.231-10.867 c-9.909,0-19.224,3.859-26.23,10.866c-5.757,5.756-9.393,13.058-10.51,21.116c-1.365,9.848-8.358,63.015-14.738,111.575 c-0.108,0.478-0.175,0.972-0.193,1.475c-0.683,5.208-1.36,10.356-2.021,15.387c-4.771,36.317-8.892,67.68-9.396,71.327 c-1.613,11.619-6.85,22.146-15.152,30.447c-10.081,10.082-23.509,15.633-37.811,15.633c-14.302,0-27.73-5.553-37.812-15.634 c-5.386-5.386-9.478-11.714-12.163-18.808c-0.831-2.196-2.565-3.929-4.76-4.76c-7.097-2.686-13.425-6.778-18.811-12.165 c-20.849-20.849-20.849-54.773,0-75.623c8.299-8.3,18.827-13.537,30.381-15.141l77.11-10.071 c-0.737,5.609-1.476,11.233-2.209,16.806l-72.588,9.478c-8.056,1.117-15.358,4.751-21.115,10.509 c-7.007,7.007-10.866,16.322-10.866,26.231c0,9.909,3.858,19.224,10.866,26.23c6.755,6.756,15.704,10.51,24.951,10.785 c0.275,9.244,4.029,18.195,10.783,24.949c7.007,7.007,16.322,10.867,26.231,10.867c9.909,0,19.224-3.859,26.23-10.866 c5.757-5.756,9.393-13.058,10.51-21.116c1.365-9.847,8.362-63.051,14.738-111.582c0.107-0.476,0.172-0.964,0.192-1.462 c0.675-5.138,1.342-10.218,1.995-15.184c4.785-36.424,8.918-67.882,9.424-71.535c1.612-11.618,6.849-22.145,15.15-30.447 c20.85-20.851,54.775-20.85,75.625-0.001c5.387,5.388,9.479,11.715,12.161,18.809c0.831,2.197,2.565,3.932,4.761,4.761 c7.093,2.684,13.423,6.776,18.811,12.163C500.843,88.623,500.843,122.547,479.993,143.397z M268.571,243.228 c-1.559-1.559-3.651-2.399-5.792-2.399c-0.788,0-1.583,0.114-2.36,0.347c-7.246,2.184-15.065,0.218-20.407-5.125 c-3.914-3.913-6.069-9.116-6.069-14.651c0-5.534,2.155-10.738,6.069-14.652c3.214-3.214,7.29-5.244,11.719-5.859l68.192-8.902 c-4.337,32.957-8.057,61.145-9.009,68.012c-0.623,4.495-2.653,8.571-5.868,11.786c-3.913,3.913-9.116,6.069-14.651,6.069 s-10.738-2.156-14.651-6.07c-5.343-5.343-7.306-13.162-5.124-20.405C271.491,248.492,270.704,245.361,268.571,243.228z"/> <path d="M186.227,391.608c-0.114,0-0.227-0.002-0.342-0.007c-4.519-0.186-8.031-3.999-7.846-8.518 c0.544-13.257-4.303-25.396-14.015-35.108c-9.713-9.712-21.851-14.57-35.109-14.015c-4.515,0.172-8.331-3.328-8.517-7.847 c-0.186-4.519,3.328-8.333,7.847-8.518c17.948-0.735,34.326,5.764,47.36,18.799c13.034,13.034,19.535,29.411,18.799,47.361 C194.222,388.159,190.594,391.608,186.227,391.608z"/> </g>

</svg>